<?xml version="1.0" encoding="UTF-8"?>
<svg version="1.1" xmlns="http://www.w3.org/2000/svg" width="975" height="312">
<path d="M0 0 C2.65018492 1.83528849 5.1917416 3.23585248 8.109375 4.5859375 C20.486595 10.52379345 28.77025689 20.2507691 33.421875 33.1484375 C36.74692879 45.52832527 36.31112299 59.31521746 30.921875 71.0234375 C28.83321764 74.58207409 26.49108939 77.80013412 23.921875 81.0234375 C22.8390625 82.5703125 22.8390625 82.5703125 21.734375 84.1484375 C13.74968328 93.30352377 1.71012739 98.52001772 -10.22265625 99.3984375 C-25.25598065 100.04778488 -37.70709414 95.84889903 -49.328125 86.14453125 C-58.23045102 77.79860061 -62.68310776 67.91399369 -65.078125 56.0234375 C-65.1374596 54.02431784 -65.15685182 52.02188742 -65.078125 50.0234375 C-87.54076853 49.4476994 -109.44905044 50.03746115 -127.078125 66.0234375 C-127.75230469 66.59449219 -128.42648438 67.16554688 -129.12109375 67.75390625 C-141.54956748 79.02847913 -148.36587324 97.20274918 -149.21704102 113.71899414 C-149.98212491 137.14710354 -148.02388861 158.28991389 -132.23046875 176.78125 C-120.66268181 188.83190282 -104.92671235 196.49516899 -88.10205078 197.13696289 C-86.57813721 197.12910767 -86.57813721 197.12910767 -85.0234375 197.12109375 C-83.36054688 197.11625977 -83.36054688 197.11625977 -81.6640625 197.11132812 C-80.52195313 197.10294922 -79.37984375 197.09457031 -78.203125 197.0859375 C-77.0378125 197.08142578 -75.8725 197.07691406 -74.671875 197.07226562 C-71.80723855 197.06052531 -68.94270867 197.0441032 -66.078125 197.0234375 C-66.10531616 196.15984619 -66.10531616 196.15984619 -66.13305664 195.27880859 C-66.38916948 181.15016067 -60.39860853 169.53348566 -50.953125 159.2734375 C-39.82723107 148.66192565 -26.1255666 144.92017074 -11.078125 145.0234375 C2.46036744 146.59537543 12.93729186 151.84530146 22.921875 161.0234375 C23.581875 162.0134375 24.241875 163.0034375 24.921875 164.0234375 C25.251875 160.3934375 25.581875 156.7634375 25.921875 153.0234375 C27.20320313 152.86488281 28.48453125 152.70632812 29.8046875 152.54296875 C50.54323696 149.81685946 68.2719678 142.51209198 85.58203125 130.81738281 C89.73472667 128.0234375 89.73472667 128.0234375 91.921875 128.0234375 C91.921875 136.2734375 91.921875 144.5234375 91.921875 153.0234375 C113.34521261 149.89233431 131.64188805 142.93777497 149.58203125 130.81738281 C153.73472667 128.0234375 153.73472667 128.0234375 155.921875 128.0234375 C155.921875 135.9434375 155.921875 143.8634375 155.921875 152.0234375 C172.04364927 147.07517015 186.90206362 140.39379743 201.02319336 131.12231445 C205.74637726 128.0234375 205.74637726 128.0234375 207.921875 128.0234375 C208.251875 132.3134375 208.581875 136.6034375 208.921875 141.0234375 C210.345 140.2190625 211.768125 139.4146875 213.234375 138.5859375 C221.33159605 134.00924734 231.16350549 133.49712269 240.1640625 135.8828125 C246.19270833 138.29427083 246.19270833 138.29427083 247.921875 140.0234375 C247.97647273 138.46133589 248.01493601 136.89866661 248.046875 135.3359375 C248.08167969 134.03076172 248.08167969 134.03076172 248.1171875 132.69921875 C247.89268589 129.62354671 247.53798685 127.66798416 245.921875 125.0234375 C243.06605851 123.98220685 243.06605851 123.98220685 239.796875 123.7109375 C236.88875 123.370625 236.88875 123.370625 233.921875 123.0234375 C233.921875 117.0834375 233.921875 111.1434375 233.921875 105.0234375 C235.27539062 104.86488281 236.62890625 104.70632812 238.0234375 104.54296875 C260.26179065 101.77238261 277.81239575 93.37141133 296.578125 81.45703125 C298.921875 80.0234375 298.921875 80.0234375 299.921875 80.0234375 C300.251875 126.8834375 300.581875 173.7434375 300.921875 222.0234375 C306.67124723 220.23119944 306.67124723 220.23119944 310.609375 216.6484375 C311.17011719 216.06320313 311.73085938 215.47796875 312.30859375 214.875 C312.84097656 214.26398438 313.37335937 213.65296875 313.921875 213.0234375 C314.76492188 212.2190625 314.76492188 212.2190625 315.625 211.3984375 C317.72159896 207.55888278 317.13939684 203.68711867 316.984375 199.3984375 C316.46996616 167.4748298 325.34610662 139.00364786 347.4921875 115.36328125 C361.15237745 102.20821087 379.71506306 92.84658658 398.921875 92.0234375 C399.994375 91.971875 401.066875 91.9203125 402.171875 91.8671875 C408.79016412 91.70173027 414.53308006 92.03599185 420.9855957 93.52734375 C430.54266337 95.49504928 440.01620193 95.3667898 449.73579979 95.24893188 C452.97938795 95.21001307 456.2226004 95.19093929 459.46638489 95.17651367 C466.34755234 95.14254343 473.22840444 95.08480276 480.109375 95.0234375 C488.10399097 94.95226012 496.09842632 94.89123686 504.09328651 94.85562134 C507.26672107 94.83638084 510.4395869 94.79887742 513.61283875 94.76049805 C533.8383828 94.60578039 550.70498799 98.37382696 565.8359375 112.59912109 C573.20056123 119.99662261 578.1942062 128.9651588 580.921875 139.0234375 C581.73978516 137.68152344 581.73978516 137.68152344 582.57421875 136.3125 C587.39330997 128.53263169 592.43206397 121.53536033 598.921875 115.0234375 C600.04142578 113.86908203 600.04142578 113.86908203 601.18359375 112.69140625 C617.52272038 96.8384024 639.80220321 91.64294587 662.0246582 91.71875 C683.35555348 92.18980067 703.77445824 98.51413707 718.921875 114.0234375 C720.6277458 115.9947718 722.2766799 118.00037073 723.921875 120.0234375 C723.32052734 121.46783203 723.32052734 121.46783203 722.70703125 122.94140625 C717.25055481 136.36019991 713.03874732 150.10783531 708.86401367 163.96582031 C707.92864735 167.0014585 706.93808094 170.0140021 705.921875 173.0234375 C702.16761529 169.49403184 699.92953023 165.08953915 697.4140625 160.6484375 C692.27949339 151.82119883 684.97252252 145.18355226 674.98828125 142.53125 C663.45409911 140.62113067 651.69442284 140.90062188 641.6875 147.49609375 C634.13905747 153.49795689 629.57167009 161.55810549 627.921875 171.0234375 C626.58566858 184.02372792 627.21475007 197.52735278 635.109375 208.5234375 C644.53913156 216.90544334 654.46038421 219.87920728 666.921875 220.0234375 C676.12906741 219.36228273 685.01988732 216.48444746 691.484375 209.6484375 C695.14053972 205.13046252 698.02667448 200.07735772 700.90258789 195.03955078 C703.72591407 190.12141796 703.72591407 190.12141796 705.921875 189.0234375 C706.09726807 189.57990967 706.27266113 190.13638184 706.45336914 190.7097168 C709.79987454 201.31294623 713.17850387 211.90506654 716.671875 222.4609375 C717.09351929 223.7452063 717.09351929 223.7452063 717.52368164 225.05541992 C718.7454992 228.72669251 720.00663025 232.29233488 721.625 235.80859375 C722.89383534 238.95392955 723.51675471 240.70434232 722.921875 244.0234375 C715.93966627 254.07276635 703.95340566 260.12201158 692.796875 264.3984375 C692.17675537 264.63715576 691.55663574 264.87587402 690.91772461 265.12182617 C669.20677968 272.92309488 641.77096439 271.3959427 620.84887695 262.06420898 C599.25204972 251.74151392 584.80966411 233.66937546 576.6015625 211.44921875 C573.93156702 202.77667787 572.80977166 194.01923265 571.921875 185.0234375 C571.33792969 185.76787109 571.33792969 185.76787109 570.7421875 186.52734375 C566.67171273 191.47006311 562.4024617 195.05919204 557.05859375 198.578125 C554.83542112 199.98354306 554.83542112 199.98354306 552.921875 202.0234375 C562.23554522 227.96853348 562.23554522 227.96853348 576.921875 251.0234375 C575.601875 256.3034375 574.281875 261.5834375 572.921875 267.0234375 C493.061875 267.0234375 413.201875 267.0234375 330.921875 267.0234375 C329.931875 264.3834375 328.941875 261.7434375 327.921875 259.0234375 C325.41669984 260.22592157 323.06333219 261.5352611 320.671875 262.9609375 C308.63138086 269.88551353 294.58016541 270.73590034 281.06640625 268.33984375 C274.34420632 266.44060555 268.9887397 263.84234925 263.921875 259.0234375 C263.23351562 258.37503906 262.54515625 257.72664063 261.8359375 257.05859375 C249.90561983 244.79564641 248.68421506 228.72444093 248.5078125 212.37890625 C248.47876328 210.67520622 248.47876328 210.67520622 248.4491272 208.93708801 C248.39005153 205.36177736 248.34323788 201.78643323 248.296875 198.2109375 C248.25862876 195.76496106 248.21957334 193.31899713 248.1796875 190.87304688 C248.08441067 184.92328937 247.99915982 178.97345449 247.921875 173.0234375 C247.78088379 173.80468994 247.63989258 174.58594238 247.49462891 175.39086914 C246.84901313 178.9565612 246.19799355 182.52124636 245.546875 186.0859375 C245.32515625 187.31505859 245.1034375 188.54417969 244.875 189.81054688 C243.8057136 195.64444765 242.72028122 201.36770206 240.921875 207.0234375 C236.85159131 202.30413363 234.10422513 197.10716737 231.18945312 191.64257812 C230.81111328 190.94970703 230.43277344 190.25683594 230.04296875 189.54296875 C229.7070874 188.91495361 229.37120605 188.28693848 229.02514648 187.63989258 C227.35408183 185.19153695 225.51653504 184.1503529 222.65234375 183.5390625 C221.81316406 183.45140625 220.97398437 183.36375 220.109375 183.2734375 C218.86220703 183.12648437 218.86220703 183.12648437 217.58984375 182.9765625 C214.39697065 183.03265983 211.91921411 183.96862208 208.921875 185.0234375 C208.8986979 193.16853092 208.88093252 201.31361054 208.87006283 209.45872879 C208.86484576 213.24088964 208.85776943 217.02302792 208.84643555 220.80517578 C208.83556492 224.45560681 208.8295893 228.10601613 208.82699776 231.7564621 C208.82515105 233.14870292 208.8215449 234.54094256 208.81614494 235.93317413 C208.80887924 237.88414856 208.80846647 239.83514486 208.80834961 241.78613281 C208.806129 242.8964386 208.80390839 244.00674438 208.80162048 245.1506958 C208.90604465 247.64526866 209.0718095 249.68271786 209.921875 252.0234375 C211.78966057 253.15182615 211.78966057 253.15182615 213.921875 254.0234375 C215.56933594 255.33618164 215.56933594 255.33618164 217.15625 256.80859375 C217.72988281 257.33904297 218.30351562 257.86949219 218.89453125 258.41601562 C219.48105469 258.96708984 220.06757813 259.51816406 220.671875 260.0859375 C221.57486328 260.91834961 221.57486328 260.91834961 222.49609375 261.76757812 C223.99418833 263.16206299 225.46100074 264.59000741 226.921875 266.0234375 C226.921875 266.3534375 226.921875 266.6834375 226.921875 267.0234375 C225.77817444 267.01899628 224.63447388 267.01455505 223.45611572 267.00997925 C212.68515573 266.96946038 201.91421117 266.93946617 191.14319229 266.91981316 C185.6055204 266.90936975 180.06790996 266.89520032 174.53027344 266.87255859 C169.18755233 266.85085018 163.8448904 266.83887307 158.5021286 266.83368301 C156.46234963 266.82998367 154.42257395 266.82275991 152.38282013 266.81197739 C149.52890488 266.79748915 146.67523509 266.79545845 143.82128906 266.79638672 C142.97540222 266.78919617 142.12951538 266.78200562 141.25799561 266.77459717 C137.29641202 266.78856803 134.31114827 266.87965295 130.921875 269.0234375 C126.14488123 269.70136071 122.12153359 269.58798272 117.734375 267.5234375 C114.10938121 264.3012208 110.99460431 260.76889453 107.921875 257.0234375 C107.633125 257.9103125 107.344375 258.7971875 107.046875 259.7109375 C103.77143324 264.81677319 98.74169243 266.71166435 93.11328125 268.64453125 C83.53923476 270.29993679 72.88659545 269.80542894 63.921875 266.0234375 C62.87 265.5903125 61.818125 265.1571875 60.734375 264.7109375 C51.1678938 258.97104878 45.85093422 250.89292538 42.46484375 240.32421875 C40.78649168 233.21235277 40.74435815 226.19777512 40.67578125 218.921875 C40.64286484 216.55207933 40.60965285 214.18228776 40.57617188 211.8125 C40.52865781 208.09507856 40.4841567 204.37767625 40.44506836 200.66015625 C40.40538574 197.05973061 40.35385978 193.45962458 40.30078125 189.859375 C40.28816002 188.19205826 40.28816002 188.19205826 40.27528381 186.49105835 C40.25864182 185.45292999 40.24199982 184.41480164 40.22485352 183.34521484 C40.21454605 182.43589203 40.20423859 181.52656921 40.19361877 180.58969116 C39.89544085 177.77380255 39.08502003 175.59308439 37.921875 173.0234375 C35.611875 172.6934375 33.301875 172.3634375 30.921875 172.0234375 C31.18742187 172.62929687 31.45296875 173.23515625 31.7265625 173.859375 C38.03232323 188.81829643 38.41707431 202.25858883 32.99609375 217.65234375 C27.17301226 230.84427017 15.69589438 239.86823084 2.99609375 245.90625 C0.5977978 247.19798755 -1.50746601 248.72411606 -3.703125 250.3359375 C-20.75612591 262.40658574 -42.45190516 269.33981105 -63.078125 272.0234375 C-63.77268799 272.1147998 -64.46725098 272.20616211 -65.18286133 272.30029297 C-73.10545084 273.22595635 -81.04939186 273.26579894 -89.015625 273.2734375 C-90.11120224 273.27494812 -90.11120224 273.27494812 -91.22891235 273.27648926 C-102.73244566 273.26578112 -113.85029957 272.68482693 -125.078125 270.0234375 C-126.30660156 269.73339844 -127.53507812 269.44335938 -128.80078125 269.14453125 C-146.27398541 264.51984045 -162.624148 256.90531871 -177.078125 246.0234375 C-178.27501953 245.13398437 -178.27501953 245.13398437 -179.49609375 244.2265625 C-195.47758644 231.92919769 -207.78838066 216.88297099 -217.078125 199.0234375 C-217.58472656 198.0651001 -217.58472656 198.0651001 -218.1015625 197.08740234 C-237.82813759 159.31212345 -239.9526087 113.17516758 -227.39013672 72.81298828 C-221.07343405 53.63074704 -211.20664462 36.33632881 -198.078125 21.0234375 C-197.39105469 20.18941406 -196.70398438 19.35539062 -195.99609375 18.49609375 C-172.62254681 -8.95373039 -136.59783547 -22.75862609 -101.453125 -25.7265625 C-65.76921526 -27.38710087 -29.34181805 -21.38595197 0 0 Z M502.921875 143.0234375 C502.921875 149.6234375 502.921875 156.2234375 502.921875 163.0234375 C505.78875 163.0853125 508.655625 163.1471875 511.609375 163.2109375 C512.50358154 163.23824951 513.39778809 163.26556152 514.3190918 163.29370117 C519.01122944 163.3426379 522.14310233 163.12304262 525.921875 160.0234375 C528.58961107 156.0218334 528.63666313 152.72912602 527.921875 148.0234375 C526.04566887 145.52182932 524.68296197 144.40398098 521.921875 143.0234375 C520.47338918 142.94001591 519.02116631 142.91610889 517.5703125 142.92578125 C516.42054932 142.92952759 516.42054932 142.92952759 515.24755859 142.93334961 C514.27383301 142.94245361 513.30010742 142.95155762 512.296875 142.9609375 C507.65625 142.991875 507.65625 142.991875 502.921875 143.0234375 Z M387.921875 149.0234375 C387.12007812 149.56484375 386.31828125 150.10625 385.4921875 150.6640625 C382.15929327 153.72343654 380.58009424 156.97214127 378.671875 161.0234375 C378.32125 161.735 377.970625 162.4465625 377.609375 163.1796875 C375.98890418 166.52035042 374.83249205 169.38096929 373.921875 173.0234375 C381.511875 173.0234375 389.101875 173.0234375 396.921875 173.0234375 C396.921875 163.7834375 396.921875 154.5434375 396.921875 145.0234375 C392.85509022 145.0234375 391.19284834 146.66833669 387.921875 149.0234375 Z M91.921875 171.0234375 C91.82049678 177.92842069 91.7504188 184.83321215 91.70214844 191.73876953 C91.68202686 194.08812634 91.65472649 196.43743304 91.62011719 198.78662109 C91.5716246 202.16256065 91.54891143 205.53783836 91.53125 208.9140625 C91.51060486 209.96523254 91.48995972 211.01640259 91.46868896 212.09942627 C91.34877317 217.81648446 91.34877317 217.81648446 93.94628906 222.71777344 C94.59823242 223.14864258 95.25017578 223.57951172 95.921875 224.0234375 C97.035625 223.6109375 98.149375 223.1984375 99.296875 222.7734375 C100.23660156 222.42539063 100.23660156 222.42539063 101.1953125 222.0703125 C103.57280955 220.6287532 103.95282667 219.66072421 104.921875 217.0234375 C105.1266116 214.08724173 105.22594532 211.2486444 105.22265625 208.3125 C105.22694138 207.46674408 105.2312265 206.62098816 105.23564148 205.74960327 C105.24137693 203.96263523 105.24189082 202.17564385 105.23754883 200.38867188 C105.23439413 197.66495565 105.25783885 194.9423316 105.28320312 192.21875 C105.28547684 190.47916803 105.28617928 188.73958315 105.28515625 187 C105.294366 186.19043854 105.30357574 185.38087708 105.31306458 184.54678345 C105.27347593 179.66909138 104.70748291 176.20899823 101.921875 172.0234375 C98.44862319 170.8656869 95.56120052 170.95477098 91.921875 171.0234375 Z M155.921875 180.0234375 C155.921875 196.1934375 155.921875 212.3634375 155.921875 229.0234375 C156.251875 229.0234375 156.581875 229.0234375 156.921875 229.0234375 C156.921875 212.8534375 156.921875 196.6834375 156.921875 180.0234375 C156.591875 180.0234375 156.261875 180.0234375 155.921875 180.0234375 Z M373.921875 221.0234375 C377.47573025 233.5986176 382.33645751 244.37157465 389.921875 255.0234375 C390.89125 254.2603125 391.860625 253.4971875 392.859375 252.7109375 C393.40464844 252.28167969 393.94992187 251.85242188 394.51171875 251.41015625 C396.69057614 249.26751256 396.91147669 247.27324288 397.03540039 244.29614258 C397.02754517 242.68582153 397.02754517 242.68582153 397.01953125 241.04296875 C397.01469727 239.29790039 397.01469727 239.29790039 397.00976562 237.51757812 C397.00138672 236.30263672 396.99300781 235.08769531 396.984375 233.8359375 C396.97986328 232.60939453 396.97535156 231.38285156 396.97070312 230.11914062 C396.95890576 227.08721885 396.94097014 224.0553221 396.921875 221.0234375 C389.331875 221.0234375 381.741875 221.0234375 373.921875 221.0234375 Z M502.921875 225.0234375 C502.86356713 228.41919812 502.82817554 231.814829 502.796875 235.2109375 C502.78011719 236.17064453 502.76335938 237.13035156 502.74609375 238.11914062 C502.73964844 239.05048828 502.73320313 239.98183594 502.7265625 240.94140625 C502.71608887 241.79500732 502.70561523 242.6486084 502.69482422 243.52807617 C503.16142371 248.65615507 505.15231869 251.63083682 508.921875 255.0234375 C509.911875 254.6934375 510.901875 254.3634375 511.921875 254.0234375 C513.15619253 251.42069449 512.93427346 250.07126436 512.20922852 247.27441406 C511.82694092 246.24799805 511.44465332 245.22158203 511.05078125 244.1640625 C510.64150391 243.04902344 510.23222656 241.93398438 509.81054688 240.78515625 C509.37291016 239.62628906 508.93527344 238.46742188 508.484375 237.2734375 C508.05060547 236.09910156 507.61683594 234.92476563 507.16992188 233.71484375 C506.09683953 230.81398377 505.01385281 227.91722619 503.921875 225.0234375 C503.591875 225.0234375 503.261875 225.0234375 502.921875 225.0234375 Z " fill="#5A5A5B" transform="translate(246.078125,31.9765625)"/>
<path d="M0 0 C-2.7939868 1.86265786 -4.39710277 2.45738047 -7.5625 3.25 C-18.66078081 6.45797022 -27.74733056 13.21167492 -33.75 23 C-34.13542969 23.60328125 -34.52085937 24.2065625 -34.91796875 24.828125 C-38.27459505 30.17085199 -40.12994923 34.76463613 -41 41 C-42.0209375 40.89171875 -42.0209375 40.89171875 -43.0625 40.78125 C-68.70668021 38.32595615 -90.7404158 41.81856969 -111.546875 57.890625 C-123.05880007 67.78941408 -130.63857641 80.50807399 -135 95 C-135.31904297 96.05960938 -135.31904297 96.05960938 -135.64453125 97.140625 C-142.47453494 122.10207735 -138.85929368 151.88256621 -126.1875 174.375 C-114.68219401 192.18581134 -97.38471873 202.958035 -77 208 C-72.70490044 208.83800344 -68.66270238 209.11771882 -64.2890625 209.09765625 C-63.04511719 209.09443359 -61.80117187 209.09121094 -60.51953125 209.08789062 C-59.23433594 209.07951172 -57.94914063 209.07113281 -56.625 209.0625 C-55.31660156 209.05798828 -54.00820312 209.05347656 -52.66015625 209.04882812 C-49.44005719 209.03707594 -46.2200523 209.02064543 -43 209 C-42.5875 210.03898438 -42.175 211.07796875 -41.75 212.1484375 C-35.27351706 228.00544234 -27.06933557 237.69280483 -11.53125 245.19140625 C-7.7826507 246.68363712 -3.99492981 247.50063377 0 248 C0 248.66 0 249.32 0 250 C-11.92784833 254.84800424 -23.25750061 258.93517768 -36 261 C-36.63711914 261.16483887 -37.27423828 261.32967773 -37.93066406 261.49951172 C-46.37355095 263.57961638 -54.95877574 263.37212978 -63.60009766 263.37060547 C-66.3343138 263.37493557 -69.06685406 263.41121326 -71.80078125 263.44921875 C-106.96974031 263.67401653 -138.6547645 250.1682334 -163.75 225.6875 C-191.41065182 197.62590926 -202.25629272 159.35256476 -202.18066406 120.83056641 C-201.8673646 82.55941616 -187.00566621 47.65059455 -160.3828125 20.3125 C-119.53575064 -18.47402758 -49.55488371 -26.38115977 0 0 Z " fill="#93CEFE" transform="translate(224,31)"/>
<path d="M0 0 C5.0088414 4.32426171 5.0088414 4.32426171 5.31303978 7.09215546 C5.31337526 8.05073708 5.31371075 9.0093187 5.3140564 9.99694824 C5.31943924 11.09591431 5.32482208 12.19488037 5.33036804 13.32714844 C5.32624405 14.53854492 5.32212006 15.74994141 5.31787109 16.99804688 C5.32342897 18.95027463 5.32899116 20.90250238 5.33471513 22.85472965 C5.33906168 24.9578908 5.33858343 27.06100481 5.33689499 29.16416931 C5.33406349 33.55258782 5.34841049 37.94084507 5.36587524 42.32922363 C5.41290909 54.80995223 5.43682177 67.29067114 5.44335938 79.77148438 C5.44712072 86.66127781 5.4652416 93.5508899 5.49845374 100.44060564 C5.51858773 104.79503907 5.52107671 109.14900211 5.51017356 113.50346279 C5.5069331 116.86634357 5.529704 120.22896817 5.54833984 123.59179688 C5.54016739 124.78699951 5.53199493 125.98220215 5.52357483 127.21362305 C5.5883521 133.80462887 6.40674889 138.89674899 9.20557594 144.89447784 C10.0625 146.8125 10.0625 146.8125 10.0625 148.8125 C-5.1175 148.8125 -20.2975 148.8125 -35.9375 148.8125 C-34.6175 145.1825 -33.2975 141.5525 -31.9375 137.8125 C-31.56681851 134.78289169 -31.33298247 132.09418417 -31.328125 129.08203125 C-31.31249512 128.40507202 -31.29686523 127.72811279 -31.28076172 127.03063965 C-31.22915876 124.56243674 -31.21007094 122.09363911 -31.1875 119.625 C-31.105 114.076875 -31.0225 108.52875 -30.9375 102.8125 C-44.7975 102.8125 -58.6575 102.8125 -72.9375 102.8125 C-69.49651283 120.01743584 -65.40402382 132.48845202 -55.9375 146.8125 C-55.6075 147.4725 -55.2775 148.1325 -54.9375 148.8125 C-69.7875 148.8125 -84.6375 148.8125 -99.9375 148.8125 C-110.36192879 113.36944211 -118.08482986 75.995685 -101.9375 40.8125 C-101.50824219 39.82378906 -101.07898438 38.83507812 -100.63671875 37.81640625 C-91.91947199 18.93313087 -76.49340058 3.59330535 -56.921875 -3.7578125 C-39.08411588 -10.03558075 -16.16983536 -11.85787926 0 0 Z M-48.9375 39.8125 C-49.73929688 40.35390625 -50.54109375 40.8953125 -51.3671875 41.453125 C-54.70008173 44.51249904 -56.27928076 47.76120377 -58.1875 51.8125 C-58.538125 52.5240625 -58.88875 53.235625 -59.25 53.96875 C-60.87047082 57.30941292 -62.02688295 60.17003179 -62.9375 63.8125 C-55.3475 63.8125 -47.7575 63.8125 -39.9375 63.8125 C-39.9375 54.5725 -39.9375 45.3325 -39.9375 35.8125 C-44.00428478 35.8125 -45.66652666 37.45739919 -48.9375 39.8125 Z " fill="#93CEFD" transform="translate(682.9375,141.1875)"/>
<path d="M0 0 C9.77098318 -0.04644324 19.54193988 -0.08192999 29.31301117 -0.10362434 C33.850641 -0.11403917 38.38819503 -0.12815617 42.92578125 -0.15087891 C47.30891154 -0.17268956 51.69196914 -0.18458592 56.07514954 -0.18975449 C57.74320112 -0.19343552 59.41124896 -0.20062353 61.07926941 -0.21146011 C63.42467695 -0.22608453 65.76978821 -0.22797341 68.11523438 -0.22705078 C69.13807526 -0.23783661 69.13807526 -0.23783661 70.18157959 -0.24884033 C84.39417248 -0.18876853 97.16023603 6.37327309 107.15625 16.09765625 C117.44856623 26.98523704 120.54819262 38.49878599 120.3125 53.21484375 C119.21757722 66.47709589 112.58261442 76.43152917 102.74609375 84.98046875 C98.49353469 88.10788416 93.91874169 90.13910723 89 92 C94.91144072 113.28545039 103.11209896 138.11209896 119 154 C101.84 154 84.68 154 67 154 C67 149.71 67 145.42 67 141 C65.84042723 136.71933258 64.62130253 132.81345703 63.0546875 128.69921875 C62.64719269 127.57916946 62.23969788 126.45912018 61.81985474 125.30513 C60.52430552 121.75842937 59.2003033 118.22317492 57.875 114.6875 C57.00851501 112.32947396 56.14391654 109.97075379 55.28125 107.61132812 C52.88090193 101.06412676 50.44641145 94.53010731 48 88 C47.347955 86.25603215 46.69593458 84.5120551 46.04394531 82.76806641 C44.70073578 79.17691093 43.35093609 75.58825577 42 72 C41.93020649 80.82373549 41.87704074 89.6473746 41.84456348 98.47132683 C41.82896879 102.56952606 41.80784521 106.66753516 41.77368164 110.765625 C41.74086522 114.72732513 41.7231005 118.68884343 41.71536827 122.6506691 C41.70986444 124.15520206 41.69911779 125.65972611 41.68280983 127.16418076 C41.59545882 135.56363221 41.92827459 143.08737452 45 151 C45.33 151.99 45.66 152.98 46 154 C30.82 154 15.64 154 0 154 C0.99 151.69 1.98 149.38 3 147 C3.85777595 143.09769263 4.12784024 139.39200344 4.14044189 135.4037323 C4.14615204 134.31465073 4.15186218 133.22556915 4.15774536 132.10348511 C4.15886322 130.92360016 4.15998108 129.74371521 4.16113281 128.52807617 C4.16609772 127.27369247 4.17106262 126.01930878 4.17617798 124.72691345 C4.18825235 121.29700622 4.19573555 117.86715967 4.20018864 114.43723845 C4.20312816 112.29066379 4.20723456 110.14409436 4.21169281 107.99752235 C4.22535175 101.27046523 4.23502665 94.54342019 4.2388947 87.81635016 C4.24337385 80.07090412 4.26092175 72.3256347 4.2898953 64.58024234 C4.31155893 58.57917747 4.32160145 52.57816214 4.32293582 46.57705861 C4.32398036 42.99918611 4.32981299 39.42147998 4.34775543 35.84364891 C4.36740027 31.84902715 4.36292858 27.85477228 4.35644531 23.86010742 C4.3656601 22.68629517 4.37487488 21.51248291 4.3843689 20.30310059 C4.3465592 12.85175345 3.34443709 6.68887418 0 0 Z M50 39 C50 45.6 50 52.2 50 59 C52.866875 59.061875 55.73375 59.12375 58.6875 59.1875 C59.58170654 59.21481201 60.47591309 59.24212402 61.3972168 59.27026367 C66.08935444 59.3192004 69.22122733 59.09960512 73 56 C75.66773607 51.9983959 75.71478813 48.70568852 75 44 C73.12379387 41.49839182 71.76108697 40.38054348 69 39 C67.55151418 38.91657841 66.09929131 38.89267139 64.6484375 38.90234375 C63.49867432 38.90609009 63.49867432 38.90609009 62.32568359 38.90991211 C61.35195801 38.91901611 60.37823242 38.92812012 59.375 38.9375 C54.734375 38.9684375 54.734375 38.9684375 50 39 Z " fill="#93CEFE" transform="translate(699,136)"/>
<path d="M0 0 C5.99458787 4.36988648 5.99458787 4.36988648 7.02197266 6.99804688 C7.40671564 9.84174458 6.75495101 11.51902373 5.73828125 14.1953125 C5.20557617 15.62423828 5.20557617 15.62423828 4.66210938 17.08203125 C4.28119141 18.07074219 3.90027344 19.05945313 3.5078125 20.078125 C2.77159889 22.03365226 2.03590715 23.98937609 1.30078125 25.9453125 C0.95450684 26.85764648 0.60823242 27.76998047 0.25146484 28.70996094 C-0.79755121 31.51870553 -1.765033 34.34785433 -2.6796875 37.203125 C-3.3603125 36.501875 -4.0409375 35.800625 -4.7421875 35.078125 C-10.26983669 29.59705713 -15.50823995 25.34823018 -22.6796875 22.203125 C-23.5459375 21.81125 -24.4121875 21.419375 -25.3046875 21.015625 C-36.07570305 17.33080389 -50.50411126 17.72936663 -61.00390625 21.8828125 C-72.50882388 27.55969156 -80.51168975 35.99235774 -84.6796875 48.203125 C-86.75471007 54.6416236 -86.8754705 61.12199877 -86.9296875 67.828125 C-86.9390332 68.62782715 -86.94837891 69.4275293 -86.95800781 70.25146484 C-86.89541062 81.91621102 -82.92930483 93.61357032 -74.8125 102.171875 C-69.34140377 107.38986002 -63.75159775 110.59212077 -56.6796875 113.203125 C-56.01324219 113.44933594 -55.34679687 113.69554687 -54.66015625 113.94921875 C-42.45992285 117.67350052 -28.95054082 115.15154944 -17.8671875 109.390625 C-12.06375528 106.02413185 -7.37743857 101.94282027 -2.6796875 97.203125 C-0.07814614 103.43152109 2.31452444 109.73971161 4.6328125 116.078125 C4.91141113 116.81538818 5.19000977 117.55265137 5.47705078 118.31225586 C6.82167651 122.04177808 7.64178713 124.43338264 6.3203125 128.203125 C-2.83233983 139.1863078 -19.01906475 144.21824819 -32.6796875 146.203125 C-34.59096799 146.29041312 -36.5046974 146.3336864 -38.41796875 146.3359375 C-39.48595703 146.33722656 -40.55394531 146.33851563 -41.65429688 146.33984375 C-42.75580078 146.33597656 -43.85730469 146.33210937 -44.9921875 146.328125 C-46.08208984 146.33199219 -47.17199219 146.33585938 -48.29492188 146.33984375 C-69.20100068 146.31470114 -86.80683769 139.86682108 -101.921875 125.08984375 C-119.74230654 106.43644587 -124.26823203 84.40213067 -123.94921875 59.48828125 C-123.33664052 39.26112931 -113.59804388 19.48865368 -99.0546875 5.515625 C-72.09265827 -17.55924051 -29.46165667 -19.75562984 0 0 Z " fill="#93CDFD" transform="translate(951.6796875,145.796875)"/>
<path d="M0 0 C0.66 0 1.32 0 2 0 C2.00546844 1.42034546 2.00546844 1.42034546 2.01104736 2.86938477 C2.04806773 11.8145116 2.10591704 20.75929642 2.18390274 29.7041626 C2.22332907 34.30230082 2.25554122 38.90024892 2.27099609 43.49853516 C2.28619472 47.94026468 2.32069673 52.38147137 2.36830902 56.82296753 C2.38308987 58.51328982 2.39103912 60.20368678 2.39188385 61.89407349 C2.17857318 74.08267446 2.17857318 74.08267446 7 85 C11.48133383 87.98755589 15.74779074 87.46652862 21 87 C25.26741444 85.68098099 27.10667144 84.19210181 29.3125 80.4375 C29.869375 79.303125 30.42625 78.16875 31 77 C31.33 76.34 31.66 75.68 32 75 C32.11380532 73.66475643 32.16924341 72.3242514 32.19287109 70.984375 C32.21696548 69.74167847 32.21696548 69.74167847 32.24154663 68.47387695 C32.28622004 64.65821216 32.32712173 60.8427215 32.35009766 57.02685547 C32.36658236 55.02315597 32.3937722 53.01951344 32.43212891 51.01611328 C33.4021415 35.48102413 33.4021415 35.48102413 27 22 C24.041487 20.46397477 21.28192048 19.55771198 18 19 C18 18.34 18 17.68 18 17 C18.70382812 16.91363281 19.40765625 16.82726562 20.1328125 16.73828125 C34.96577287 14.62758584 47.83233418 8.40512295 61.13745117 1.86035156 C63 1 63 1 66 0 C66.00586624 1.07217773 66.01173248 2.14435547 66.01777649 3.24902344 C66.07508048 13.37138485 66.14788224 23.49353301 66.23571491 33.61567688 C66.28037246 38.81912679 66.31963883 44.02249924 66.34643555 49.22607422 C66.37251446 54.25126007 66.41294947 59.27614709 66.46318626 64.30114746 C66.47982394 66.21476514 66.49135747 68.12843448 66.49761391 70.04211426 C66.50728875 72.73021501 66.53538813 75.41755657 66.56762695 78.10546875 C66.56619186 78.89022079 66.56475677 79.67497284 66.5632782 80.48350525 C66.66403075 86.45424731 67.55666321 92.47521865 71.875 96.9375 C74.24671094 98.12335547 76.38051769 98.63618301 79 99 C73.64837605 103.48956013 67.78813232 106.5193258 61.625 109.75 C60.51382813 110.35199219 59.40265625 110.95398438 58.2578125 111.57421875 C57.175 112.14269531 56.0921875 112.71117187 54.9765625 113.296875 C53.99768066 113.81604492 53.01879883 114.33521484 52.01025391 114.87011719 C48.45296917 116.20532512 45.7720162 116.32761249 42 116 C36.76427033 112.34716535 34.45672505 107.05269259 33 101 C32.2845039 95.02481841 32.13097201 89.01161509 32 83 C31.60731934 83.82725586 31.21463867 84.65451172 30.81005859 85.50683594 C29.33580919 88.59223243 27.84706921 91.66972597 26.34814453 94.74316406 C25.70423182 96.07105228 25.06610886 97.40176512 24.43408203 98.73535156 C23.52088176 100.65954362 22.58686184 102.57238192 21.6484375 104.484375 C20.81578369 106.21252441 20.81578369 106.21252441 19.96630859 107.97558594 C17.43415134 111.87034184 14.4366296 114.06051601 10.10546875 115.73046875 C0.86402314 116.91351095 -9.0197629 117.36271933 -17 112 C-17.70640625 111.525625 -18.4128125 111.05125 -19.140625 110.5625 C-26.52961845 104.87023838 -29.71573545 97.06215585 -31 88 C-31.08451794 86.11373023 -31.12505713 84.22507616 -31.12597656 82.33691406 C-31.13168671 80.70426605 -31.13168671 80.70426605 -31.13751221 79.03863525 C-31.13853943 77.87604187 -31.13956665 76.71344849 -31.140625 75.515625 C-31.15895275 73.02863667 -31.17852302 70.54165725 -31.19921875 68.0546875 C-31.22815887 64.15316692 -31.24999972 60.2522208 -31.25048828 56.35058594 C-31.25383577 52.57175322 -31.28846103 48.79422917 -31.328125 45.015625 C-31.3210553 43.86112854 -31.3139856 42.70663208 -31.30670166 41.51715088 C-31.41482608 34.26485435 -32.36146662 27.83525404 -37 22 C-39.94596687 20.42719406 -42.71437958 19.55834073 -46 19 C-46 18.34 -46 17.68 -46 17 C-45.29617188 16.91363281 -44.59234375 16.82726562 -43.8671875 16.73828125 C-31.20535282 14.93653193 -9.46722906 9.46722906 0 0 Z " fill="#93CDFD" transform="translate(327,176)"/>
<path d="M0 0 C0.00238835 0.63168846 0.00477671 1.26337692 0.00723743 1.91420746 C0.06645001 17.30568313 0.1420399 32.69697892 0.23571491 48.08827972 C0.28062373 55.53149497 0.32004962 62.97466289 0.34643555 70.41796875 C0.36945555 76.90780428 0.402898 83.39748943 0.44870156 89.8872056 C0.47258011 93.3214479 0.4913439 96.75554177 0.49761391 100.18986511 C0.50724806 104.02979608 0.53530123 107.8691866 0.56762695 111.70898438 C0.56619186 112.83971375 0.56475677 113.97044312 0.5632782 115.13543701 C0.63822213 121.43758945 1.18724738 126.3137531 4 132 C8.04458811 134.69639207 11.25038018 134.55115042 16 134 C19.36878771 132.69280737 19.36878771 132.69280737 22 131 C22.66 130.67 23.32 130.34 24 130 C24.84464056 133.37227237 25.67366647 136.74819921 26.5 140.125 C26.85771484 141.55199219 26.85771484 141.55199219 27.22265625 143.0078125 C28.37785933 147.76064801 29.33216612 152.06733309 29 157 C27.46101439 157.79686606 25.91866216 158.58723141 24.375 159.375 C23.51648438 159.81585938 22.65796875 160.25671875 21.7734375 160.7109375 C11.73174581 165.37820265 -2.1940393 166.28052944 -12.75 162.4375 C-23.09946532 157.19888175 -28.04950243 149.37138978 -31.61352539 138.58862305 C-33.8523655 130.09184159 -33.40678612 121.28389339 -33.38012505 112.56189919 C-33.37094251 109.27794153 -33.38131852 105.99454602 -33.39674377 102.71061707 C-33.43665711 93.38171139 -33.43804257 84.05285389 -33.43579102 74.72387695 C-33.43573985 68.99875264 -33.45493085 63.27393507 -33.48512459 57.54889488 C-33.49591604 54.32266038 -33.48384329 51.09701897 -33.47129822 47.87080383 C-33.4802044 45.88497335 -33.4902794 43.89914764 -33.50170898 41.91333008 C-33.49196548 41.02429993 -33.48222198 40.13526978 -33.47218323 39.21929932 C-33.55386835 32.08464935 -35.33223449 26.66776551 -40.4375 21.5625 C-43.04051169 19.97529775 -44.98909181 19.34410379 -48 19 C-48 18.34 -48 17.68 -48 17 C-47.41476562 16.92523438 -46.82953125 16.85046875 -46.2265625 16.7734375 C-31.25417105 14.48036854 -17.73143983 8.7452858 -4.40234375 1.7578125 C-1 0 -1 0 0 0 Z " fill="#93CDFD" transform="translate(537,128)"/>
<path d="M0 0 C0.495 11.88 0.495 11.88 1 24 C2.65 20.7 4.3 17.4 6 14 C10.34628668 7.9604562 15.5284636 1.84498535 23 0 C30.23378378 -0.83203196 36.50546127 -0.3675386 43 3 C44.74893667 5.4211936 45.0509478 6.57601407 44.69213867 9.56201172 C44.4366626 10.50834473 44.18118652 11.45467773 43.91796875 12.4296875 C43.64533203 13.47253906 43.37269531 14.51539063 43.09179688 15.58984375 C42.64416992 17.21599609 42.64416992 17.21599609 42.1875 18.875 C41.61653831 21.01771017 41.04746867 23.16092557 40.48046875 25.3046875 C40.22160889 26.25327637 39.96274902 27.20186523 39.69604492 28.17919922 C38.97409656 31.10497662 38.45884229 34.02261117 38 37 C37.34 37 36.68 37 36 37 C36 36.34 36 35.68 36 35 C34.34015202 34.31653318 32.67163195 33.65411685 31 33 C30.11570312 32.65324219 29.23140625 32.30648437 28.3203125 31.94921875 C24.49751196 30.85634754 20.94054858 30.66898238 17 30.6875 C16.31421875 30.67138672 15.6284375 30.65527344 14.921875 30.63867188 C10.20447651 30.63417054 6.97831757 31.47211071 3 34 C0.63755748 37.54366377 0.74234239 39.0548043 0.7253418 43.25634766 C0.71580978 44.54844147 0.70627777 45.84053528 0.69645691 47.17178345 C0.69671848 48.58587674 0.6976562 49.99997005 0.69921875 51.4140625 C0.69532977 52.86795168 0.69099468 54.32183973 0.68623352 55.77572632 C0.67876756 58.82724685 0.67906341 61.87865173 0.68432617 64.93017578 C0.6900944 68.82039027 0.67325652 72.71012454 0.6499815 76.60025978 C0.6351622 79.60650351 0.63438398 82.61263413 0.63749123 85.61890793 C0.63698122 87.05167968 0.63180441 88.4844583 0.62167931 89.91719437 C0.56681694 98.77328248 0.99036718 105.98073437 5 114 C-9.19 114 -23.38 114 -38 114 C-37.01 111.03 -36.02 108.06 -35 105 C-34.06707184 101.26828734 -33.8556591 98.37365481 -33.82299805 94.55419922 C-33.80374519 92.59098221 -33.80374519 92.59098221 -33.78410339 90.58810425 C-33.7759328 89.16030255 -33.76848968 87.73249652 -33.76171875 86.3046875 C-33.75764322 85.58165562 -33.7535677 84.85862373 -33.74936867 84.11368179 C-33.72853417 80.28314758 -33.71422379 76.45264886 -33.70483398 72.62207031 C-33.69380281 68.68819326 -33.65943431 64.75488703 -33.61966228 60.82121086 C-33.59336513 57.77720169 -33.58513042 54.73332554 -33.58155251 51.6892128 C-33.57671662 50.24049164 -33.56518934 48.79177521 -33.54651451 47.34316635 C-33.43176074 37.84805412 -33.59432982 28.75348624 -40.375 21.4375 C-43.29345354 19.83929925 -45.70117785 19.30686718 -49 19 C-49 18.34 -49 17.68 -49 17 C-48.41476562 16.92523438 -47.82953125 16.85046875 -47.2265625 16.7734375 C-31.73477947 14.40082208 -17.7226454 8.3339138 -4 1 C-2 0 -2 0 0 0 Z " fill="#93CDFC" transform="translate(445,176)"/>
<path d="M0 0 C7.88130623 5.14457843 14.58832745 12.34143614 16.91796875 21.7265625 C18.81190931 33.41674735 18.00296597 42.54506755 11.37109375 52.5234375 C10.91476562 53.21050781 10.4584375 53.89757812 9.98828125 54.60546875 C5.13740276 60.9670494 -2.57491743 65.75320022 -10.4453125 67.2734375 C-21.43181478 68.53128391 -30.76520609 67.20566741 -39.94140625 60.7109375 C-48.02587837 54.08133971 -53.82740333 45.48121647 -54.90234375 34.80859375 C-55.25366574 23.66087689 -52.53860369 15.52847741 -45.25390625 7.0234375 C-41.59775378 3.24642049 -38.40571446 0.69471396 -33.62890625 -1.4765625 C-33.05011719 -1.77175781 -32.47132813 -2.06695312 -31.875 -2.37109375 C-21.81044301 -6.97263442 -9.43422734 -5.29886766 0 0 Z " fill="#004AAC" transform="translate(249.62890625,197.4765625)"/>
<path d="M0 0 C7.65007922 6.15332459 13.8118478 13.22509707 15.12597656 23.22167969 C16.21786033 34.92513731 13.95409504 43.26114675 7.00390625 52.91015625 C4.71248102 55.49589298 2.48185771 57.16249762 -0.4375 59 C-1.34113281 59.58136719 -2.24476563 60.16273437 -3.17578125 60.76171875 C-11.50194476 65.13984711 -21.70630703 65.95210807 -30.81640625 63.625 C-33.07458237 62.68245692 -35.05916803 61.62194468 -37.125 60.3125 C-38.16914063 59.65894531 -38.16914063 59.65894531 -39.234375 58.9921875 C-47.71164145 53.16008314 -52.79723729 45.32972603 -55.125 35.3125 C-56.39755346 24.53475129 -54.21800901 16.32600094 -47.9375 7.5625 C-44.25702383 3.11132583 -40.17696208 0.06811568 -35.125 -2.6875 C-34.51140625 -3.0278125 -33.8978125 -3.368125 -33.265625 -3.71875 C-21.97896819 -8.92797622 -10.28234369 -5.55246559 0 0 Z " fill="#CD2B37" transform="translate(251.125,51.6875)"/>
<path d="M0 0 C0 15.51 0 31.02 0 47 C-14.19 47 -28.38 47 -43 47 C-35.67122841 15.85272076 -35.67122841 15.85272076 -22.44140625 6.1171875 C-19.99916204 4.61482627 -17.5814623 3.24651361 -15 2 C-14.28199219 1.6184375 -13.56398438 1.236875 -12.82421875 0.84375 C-10 0 -10 0 0 0 Z M-18 14 C-18.80179688 14.54140625 -19.60359375 15.0828125 -20.4296875 15.640625 C-23.76258173 18.69999904 -25.34178076 21.94870377 -27.25 26 C-27.600625 26.7115625 -27.95125 27.423125 -28.3125 28.15625 C-29.93297082 31.49691292 -31.08938295 34.35753179 -32 38 C-24.41 38 -16.82 38 -9 38 C-9 28.76 -9 19.52 -9 10 C-13.06678478 10 -14.72902666 11.64489919 -18 14 Z " fill="#5A5C5D" transform="translate(652,167)"/>
<path d="M0 0 C4.62 -0.0825 9.24 -0.165 14 -0.25 C16.16175781 -0.30462402 16.16175781 -0.30462402 18.3671875 -0.36035156 C26.83554148 -0.43343591 32.75254769 -0.07311659 39.09375 6.0078125 C42.86052944 11.67890822 44.26881493 16.21840295 43 23 C41.13312682 28.93250809 38.05556492 32.492057 33 36 C29.01356758 37.96096076 25.80778015 38.23568749 21.38671875 38.1953125 C20.26225342 38.19031738 19.13778809 38.18532227 17.97924805 38.18017578 C16.56297119 38.16196777 15.14669434 38.14375977 13.6875 38.125 C9.170625 38.08375 4.65375 38.0425 0 38 C0 25.46 0 12.92 0 0 Z M9 9 C9 15.6 9 22.2 9 29 C11.866875 29.061875 14.73375 29.12375 17.6875 29.1875 C18.58170654 29.21481201 19.47591309 29.24212402 20.3972168 29.27026367 C25.08935444 29.3192004 28.22122733 29.09960512 32 26 C34.66773607 21.9983959 34.71478813 18.70568852 34 14 C32.12379387 11.49839182 30.76108697 10.38054348 28 9 C26.55151418 8.91657841 25.09929131 8.89267139 23.6484375 8.90234375 C22.49867432 8.90609009 22.49867432 8.90609009 21.32568359 8.90991211 C20.35195801 8.91901611 19.37823242 8.92812012 18.375 8.9375 C13.734375 8.9684375 13.734375 8.9684375 9 9 Z " fill="#5A5B5B" transform="translate(740,166)"/>
<path d="M0 0 C0.66 0.33 1.32 0.66 2 1 C-4.6 7.6 -11.2 14.2 -18 21 C-18 16.81116298 -15.67400903 15.0691572 -12.9375 12.1875 C-12.43887451 11.65286133 -11.94024902 11.11822266 -11.42651367 10.56738281 C-7.83096005 6.75766304 -4.0942029 3.27536232 0 0 Z " fill="#818181" transform="translate(64,37)"/>
</svg>
