<?xml version="1.0" encoding="UTF-8"?>
<!DOCTYPE svg PUBLIC "-//W3C//DTD SVG 1.1//EN" "http://www.w3.org/Graphics/SVG/1.1/DTD/svg11.dtd">
<svg xmlns="http://www.w3.org/2000/svg" version="1.1" width="1080px" height="1080px" style="shape-rendering:geometricPrecision; text-rendering:geometricPrecision; image-rendering:optimizeQuality; fill-rule:evenodd; clip-rule:evenodd" xmlns:xlink="http://www.w3.org/1999/xlink">
<g><path style="opacity:1" fill="#555555" d="M 677.5,317.5 C 678.055,313.988 677.388,310.988 675.5,308.5C 621.07,298.976 568.404,304.809 517.5,326C 458.257,354.583 419.09,400.417 400,463.5C 383.348,525.503 383.348,587.503 400,649.5C 426.734,731.561 482.234,782.394 566.5,802C 601.363,808.33 636.363,809.164 671.5,804.5C 673.551,739.207 701.884,689.04 756.5,654C 816.02,621.095 875.354,621.428 934.5,655C 995.851,695.547 1023.02,752.714 1016,826.5C 1005.42,886.525 973.255,930.692 919.5,959C 912.833,961.667 906.167,964.333 899.5,967C 854.427,1001.7 804.093,1026.03 748.5,1040C 652.034,1064.48 555.367,1065.48 458.5,1043C 314.417,1002.91 211.583,914.748 150,778.5C 100.068,657.787 91.4016,534.121 124,407.5C 156.914,286.377 225.748,191.877 330.5,124C 417.005,72.6245 510.672,49.2912 611.5,54C 684.415,55.1156 754.415,69.7822 821.5,98C 849.46,110.636 875.46,126.303 899.5,145C 965.027,170.86 1002.53,218.693 1012,288.5C 1016.12,350.208 994.283,400.375 946.5,439C 893.825,475.959 837.492,482.626 777.5,459C 717.845,430.501 684.512,383.334 677.5,317.5 Z"/></g>
<g><path style="opacity:1" fill="#93cefe" d="M 556.5,89.5 C 626.924,86.1095 695.924,94.2762 763.5,114C 783.734,120.617 803.401,128.617 822.5,138C 756.288,149.885 710.788,187.052 686,249.5C 683.022,257.261 681.188,265.261 680.5,273.5C 629.366,264.264 579.033,267.431 529.5,283C 448.105,311.395 393.939,366.562 367,448.5C 348.597,511.951 346.597,575.951 361,640.5C 387.505,746.672 454.005,812.172 560.5,837C 597.827,844.552 635.327,845.385 673,839.5C 674.167,839.833 675.333,840.167 676.5,840.5C 692.651,902.818 730.984,944.985 791.5,967C 801.724,969.806 812.058,972.139 822.5,974C 788.831,990.891 753.498,1003.22 716.5,1011C 653.304,1023.7 589.637,1026.7 525.5,1020C 362.491,995.614 247.324,908.447 180,758.5C 142.782,665.999 131.448,570.333 146,471.5C 163.015,362.28 211.849,270.447 292.5,196C 368.514,131.516 456.514,96.016 556.5,89.5 Z"/></g>
<g><path style="opacity:1" fill="#cd2b37" d="M 829.5,186.5 C 889.549,183.256 931.716,208.923 956,263.5C 970.535,308.68 962.535,349.347 932,385.5C 896.063,420.583 853.896,431.083 805.5,417C 748.859,392.586 722.692,349.42 727,287.5C 738.887,231.112 773.054,197.445 829.5,186.5 Z"/></g>
<g><path style="opacity:1" fill="#b3b3b3" d="M 675.5,308.5 C 677.388,310.988 678.055,313.988 677.5,317.5C 676.755,314.61 676.088,311.61 675.5,308.5 Z"/></g>
<g><path style="opacity:1" fill="#004aac" d="M 829.5,681.5 C 892.105,678.198 935.605,705.198 960,762.5C 974.723,814.45 962.556,858.95 923.5,896C 879.953,929.08 833.62,933.413 784.5,909C 739.092,880.013 718.926,838.513 724,784.5C 734.078,734.087 763.578,700.92 812.5,685C 818.265,683.614 823.931,682.448 829.5,681.5 Z"/></g>
</svg>
